<?xml version="1.0" standalone="no"?>
<!DOCTYPE svg PUBLIC "-//W3C//DTD SVG 20010904//EN"
 "http://www.w3.org/TR/2001/REC-SVG-20010904/DTD/svg10.dtd">
<svg version="1.0" xmlns="http://www.w3.org/2000/svg"
 width="1019.000000pt" height="1019.000000pt" viewBox="0 0 1019.000000 1019.000000"
 preserveAspectRatio="xMidYMid meet">
<metadata>
Created by potrace 1.14, written by Peter Selinger 2001-2017
</metadata>
<g transform="translate(0.000000,1019.000000) scale(0.100000,-0.100000)"
fill="#000000" stroke="none">
<path d="M3225 10180 c-28 -46 -136 -509 -176 -759 -11 -69 -29 -180 -39 -246
-11 -66 -22 -140 -25 -165 -3 -25 -7 -56 -10 -70 -2 -14 -7 -50 -10 -80 -3
-30 -8 -62 -10 -70 -2 -8 -7 -51 -10 -95 -4 -44 -9 -93 -10 -110 -15 -133 -21
-473 -11 -577 3 -32 8 -82 11 -112 3 -29 7 -62 9 -72 2 -11 7 -41 10 -69 27
-204 114 -439 235 -630 147 -234 314 -396 726 -707 77 -58 214 -165 305 -237
91 -73 200 -155 243 -183 42 -28 77 -54 77 -58 0 -7 76 -135 115 -195 l20 -30
-35 23 c-171 110 -491 272 -870 439 -337 149 -798 391 -859 451 -20 20 -66 64
-100 97 -164 156 -259 325 -451 805 -111 277 -196 459 -261 560 -121 189 -289
358 -579 585 -63 49 -167 132 -230 185 -119 99 -203 163 -350 266 -47 32 -118
92 -158 132 -40 39 -76 72 -80 72 -4 0 -15 -7 -26 -15 -20 -15 -23 -40 -13
-95 6 -33 44 -217 52 -250 2 -8 9 -37 15 -65 6 -27 13 -57 15 -65 2 -8 15 -62
30 -120 56 -224 67 -269 90 -375 23 -109 31 -151 41 -230 3 -22 9 -56 14 -75
5 -19 12 -57 16 -85 3 -27 21 -110 40 -183 135 -525 385 -807 884 -997 131
-50 349 -112 494 -141 114 -22 218 -40 351 -60 120 -17 134 -23 310 -119 202
-111 647 -325 980 -473 73 -32 335 -163 390 -194 106 -61 297 -194 403 -282
50 -41 142 -129 139 -133 -2 -2 -60 23 -128 56 -351 166 -728 305 -918 337
-14 3 -51 9 -81 14 -198 35 -494 47 -640 26 -329 -48 -490 -98 -928 -285 -279
-120 -469 -189 -578 -211 -226 -45 -384 -102 -384 -139 0 -27 49 -62 161 -115
135 -64 351 -123 664 -180 17 -3 41 -8 55 -11 103 -19 208 -35 262 -40 34 -4
69 -8 76 -10 67 -22 653 -22 768 -1 10 2 46 7 79 11 33 3 105 15 160 26 55 11
113 23 129 25 118 22 391 115 680 233 338 139 502 157 717 80 82 -29 89 -34
148 -104 67 -81 338 -356 441 -449 36 -32 112 -97 169 -145 57 -47 116 -96
130 -109 l26 -22 -27 9 c-22 8 -140 32 -273 56 -155 27 -609 28 -750 1 -11 -2
-42 -7 -69 -10 -150 -21 -421 -104 -893 -274 -267 -97 -386 -131 -603 -172
-199 -38 -323 -77 -409 -127 -73 -43 -91 -65 -76 -89 18 -28 157 -102 270
-145 94 -35 321 -99 410 -115 17 -3 80 -16 140 -30 61 -13 124 -27 140 -30 17
-3 75 -14 130 -24 147 -29 223 -40 430 -65 192 -22 608 -23 676 -1 8 3 34 7
59 10 64 7 269 60 370 94 225 77 405 163 585 280 138 89 213 125 377 181 l141
48 161 -78 c258 -124 571 -220 866 -263 234 -35 674 -24 811 19 21 7 26 34 7
36 -53 4 -109 8 -209 14 -65 3 -128 8 -140 10 -13 2 -49 6 -79 9 -334 31 -809
149 -1095 271 -254 109 -327 147 -425 225 -237 189 -398 421 -522 749 -52 139
-67 233 -63 401 7 260 67 485 257 955 110 273 163 423 214 605 43 154 39 136
78 335 4 23 23 175 31 255 12 120 6 441 -11 560 -3 19 -7 55 -10 80 -10 82
-54 273 -86 370 -58 180 -108 295 -254 596 -126 261 -188 390 -222 465 -36 82
-60 92 -97 44 -14 -19 -25 -38 -25 -42 0 -5 -11 -33 -25 -62 -55 -113 -127
-316 -211 -596 -48 -160 -105 -322 -171 -490 -106 -269 -204 -564 -228 -683
-1 -9 -10 -44 -18 -77 -18 -73 -27 -121 -47 -256 -25 -170 -27 -420 -6 -554 3
-16 8 -52 11 -80 4 -27 13 -79 22 -115 8 -36 17 -76 19 -90 9 -46 53 -194 87
-295 92 -268 178 -451 337 -720 225 -380 249 -426 291 -550 57 -172 194 -428
307 -578 24 -31 40 -57 35 -57 -16 0 -258 183 -397 299 -248 208 -508 470
-613 617 -23 32 -79 97 -123 144 -126 132 -377 485 -406 571 -14 40 -39 154
-49 224 -4 22 -8 51 -11 65 -12 70 -19 272 -17 500 3 506 2 736 -2 774 -2 22
-6 69 -10 105 -3 36 -10 91 -15 121 -5 30 -12 71 -15 90 -27 159 -142 464
-257 679 -133 248 -236 402 -492 731 -121 154 -242 323 -294 408 -86 141 -175
366 -181 459 -1 17 -38 36 -46 23z m1 -402 c3 -18 12 -68 20 -111 9 -42 18
-90 20 -105 3 -15 25 -112 49 -217 24 -104 51 -226 59 -270 9 -44 18 -89 20
-100 5 -21 64 -295 72 -330 2 -11 6 -31 9 -45 3 -14 14 -58 24 -99 l20 -74
-52 49 c-144 135 -217 215 -250 272 -20 35 -37 70 -37 78 0 7 -7 14 -15 14
-17 0 -15 -18 12 -100 24 -70 68 -129 203 -267 69 -70 137 -146 152 -168 16
-23 45 -100 67 -175 58 -199 150 -470 190 -564 12 -27 20 -50 18 -52 -7 -7
-393 391 -459 474 -68 84 -90 94 -62 26 45 -107 108 -182 368 -434 145 -140
228 -257 299 -419 32 -75 72 -162 88 -196 55 -109 54 -111 -8 -55 -71 63 -155
119 -297 196 -124 67 -198 131 -300 258 -62 76 -86 99 -86 80 0 -17 97 -151
153 -210 70 -75 103 -99 307 -233 148 -98 250 -186 339 -295 44 -54 78 -114
140 -251 94 -203 139 -301 154 -330 9 -17 8 -18 -4 -9 -34 27 -368 288 -490
383 -267 208 -420 350 -557 513 -183 220 -297 451 -352 713 -40 189 -45 248
-45 490 1 212 7 309 31 495 8 63 17 134 20 156 3 23 7 52 9 64 2 12 7 48 11
79 3 31 7 63 9 71 7 37 20 128 30 200 3 25 8 52 10 60 2 8 7 40 10 70 5 47 13
83 40 200 2 8 11 47 20 85 22 89 23 97 24 114 2 24 12 5 17 -31z m114 -9 c0
-16 79 -137 179 -274 438 -600 608 -868 745 -1180 147 -331 182 -535 177
-1020 -7 -728 -5 -798 29 -985 5 -25 7 -46 5 -48 -1 -1 -47 100 -100 225 -79
183 -107 262 -144 403 l-45 175 -1 245 c-2 217 -7 310 -21 372 -2 10 -6 28 -9
41 -17 85 -49 177 -62 177 -14 0 -13 -55 2 -140 3 -14 7 -43 10 -65 3 -22 10
-71 17 -109 7 -45 8 -113 3 -190 -5 -67 -9 -170 -9 -230 l-1 -108 -36 78 c-28
61 -95 292 -124 424 -1 8 -8 35 -15 59 -31 115 -31 223 -1 424 23 152 26 285
9 393 -12 81 -28 137 -36 130 -3 -4 -7 -89 -8 -189 -1 -161 -9 -245 -41 -447
-3 -19 -8 -75 -12 -125 l-6 -90 -62 185 c-35 102 -65 199 -68 216 -6 38 -13
91 -24 174 -9 71 -7 250 3 290 9 34 9 166 1 215 -11 65 -66 235 -77 235 -9 0
-6 -84 5 -135 23 -106 28 -252 12 -370 -5 -33 -9 -70 -9 -83 0 -12 -3 -19 -7
-15 -8 10 -62 207 -104 383 -53 220 -90 387 -115 520 -18 91 -34 174 -36 185
-2 11 -11 63 -19 115 -8 52 -17 110 -21 128 -3 23 -2 32 5 27 6 -3 11 -11 11
-16z m2571 -456 c81 -168 219 -463 219 -468 0 -3 14 -35 31 -72 119 -260 189
-515 205 -747 3 -45 7 -92 10 -105 5 -26 5 -314 -1 -401 -12 -180 -31 -321
-61 -448 -36 -154 -120 -408 -175 -529 -10 -24 -19 -47 -19 -53 0 -6 -4 -18
-10 -28 -21 -37 -151 -378 -193 -509 -61 -187 -109 -409 -110 -510 -1 -32 -15
-8 -27 45 -8 31 -15 62 -16 67 -38 163 -37 154 -60 300 -8 55 -19 125 -24 155
-9 58 -6 330 5 390 21 116 66 209 160 325 40 50 87 114 104 144 54 91 109 282
90 313 -13 20 -23 3 -69 -122 -57 -154 -95 -220 -186 -320 -42 -47 -92 -107
-111 -135 l-34 -50 3 340 4 340 40 90 c22 50 69 135 104 190 202 318 275 460
344 667 32 95 42 136 34 145 -6 7 -14 11 -18 8 -11 -7 -86 -163 -140 -290 -68
-161 -142 -302 -222 -425 -41 -63 -87 -136 -102 -162 -27 -47 -39 -61 -31 -35
2 6 6 57 9 112 12 202 28 268 147 592 96 264 128 386 136 523 3 58 3 102 -1
99 -4 -4 -20 -58 -36 -120 -30 -120 -88 -293 -139 -419 -31 -77 -38 -71 -22
17 6 27 12 72 15 99 4 27 8 60 11 74 3 14 7 41 9 60 6 50 26 210 31 240 4 23
13 103 21 175 18 170 24 468 11 535 -4 16 -5 30 -2 30 2 0 32 -57 66 -127z
m-127 -198 c-1 -93 -4 -192 -7 -220 -4 -27 -9 -77 -12 -110 -8 -86 -26 -223
-44 -340 -6 -38 -7 -37 -23 43 -16 80 -58 172 -79 172 -9 0 -5 -74 7 -135 3
-11 7 -36 10 -55 2 -19 9 -55 14 -80 11 -59 24 -187 23 -225 -2 -25 -13 -106
-29 -195 -6 -33 -11 -68 -24 -165 -6 -44 -13 -91 -15 -105 -7 -51 -25 -217
-30 -295 -3 -43 -8 -81 -10 -84 -3 -2 -5 3 -5 11 0 9 -19 60 -41 114 -57 135
-74 192 -87 279 -11 81 -5 304 11 385 15 75 14 97 -4 70 -12 -20 -38 -104 -47
-155 -9 -52 -9 -257 0 -315 14 -86 82 -333 148 -536 16 -50 25 -153 20 -222
-3 -35 -5 -167 -5 -293 0 -126 -1 -229 -2 -229 -2 0 -18 30 -37 68 -47 94 -88
214 -126 372 -49 205 -55 225 -65 220 -20 -10 0 -235 31 -365 21 -84 26 -98
125 -305 85 -179 88 -188 94 -275 3 -49 8 -99 11 -110 2 -11 6 -33 8 -50 11
-95 32 -191 73 -330 19 -66 37 -147 39 -180 3 -33 7 -66 9 -72 11 -32 -9 -4
-77 110 -154 259 -307 615 -388 902 -39 138 -62 237 -74 312 -2 16 -8 48 -11
73 -4 25 -9 53 -11 63 -18 96 -23 340 -11 477 12 134 16 157 48 297 52 230
115 414 302 888 131 331 202 544 232 695 7 34 36 146 42 160 12 27 20 -93 17
-265z m-4719 -200 c117 -83 311 -231 351 -270 6 -5 30 -26 54 -45 24 -19 48
-39 54 -45 6 -5 49 -42 96 -81 106 -89 249 -229 321 -314 146 -173 207 -286
371 -690 54 -135 122 -292 149 -350 49 -102 130 -241 156 -268 7 -7 13 -16 13
-20 0 -4 16 -24 36 -44 19 -21 32 -38 29 -38 -38 0 -539 376 -563 422 -44 88
-79 218 -112 418 -11 69 -22 136 -25 150 -2 13 -7 42 -10 65 -16 105 -52 218
-68 212 -19 -6 -5 -209 28 -422 17 -106 62 -271 86 -317 26 -48 -9 -23 -114
83 -62 63 -127 134 -144 159 -55 81 -113 208 -129 281 -11 53 -23 127 -28 169
-3 25 -8 70 -11 100 -14 127 -55 255 -77 247 -14 -4 -14 -15 -4 -147 10 -118
13 -150 25 -217 6 -32 13 -72 15 -88 3 -17 14 -56 24 -87 11 -32 15 -55 11
-52 -25 15 -124 174 -139 222 -10 32 -36 98 -58 148 -37 83 -57 143 -68 199
-34 178 -57 258 -95 325 -22 39 -58 58 -45 24 11 -28 61 -231 76 -304 9 -49 6
-66 -5 -28 -21 68 -119 262 -186 369 -29 46 -106 164 -172 263 l-119 178 69
-54 c37 -30 131 -99 208 -153z m-154 -82 c141 -217 236 -378 279 -469 22 -48
39 -88 37 -90 -2 -2 -53 32 -113 76 -141 103 -141 103 -148 85 -9 -25 56 -96
144 -157 47 -32 95 -66 107 -74 23 -17 97 -127 113 -169 5 -14 15 -25 21 -25
7 0 10 -3 7 -6 -8 -7 32 -96 82 -186 22 -39 39 -72 37 -74 -2 -2 -57 23 -123
55 -79 40 -145 82 -197 125 -83 71 -102 79 -92 44 22 -73 109 -142 311 -243
84 -43 162 -87 173 -99 12 -12 49 -57 83 -101 34 -44 79 -98 99 -120 20 -22
49 -55 64 -72 l27 -33 -98 35 c-116 42 -152 62 -268 154 -82 66 -106 81 -106
64 0 -13 55 -79 120 -144 73 -74 128 -105 240 -138 211 -63 204 -59 342 -179
57 -49 144 -119 193 -155 50 -37 95 -70 100 -74 6 -5 47 -33 92 -63 45 -30 81
-55 79 -57 -2 -3 -56 10 -391 89 -361 86 -574 190 -755 369 -162 160 -259 357
-319 644 -23 112 -43 229 -66 385 -8 58 -17 116 -20 130 -20 104 -40 196 -56
260 -11 41 -22 83 -24 92 -6 26 -55 211 -61 231 -11 35 6 14 87 -110z m2719
-3096 c14 -2 52 -8 85 -13 33 -4 62 -8 65 -9 3 -1 25 -5 50 -9 153 -26 450
-122 625 -201 17 -8 84 -37 150 -65 117 -49 119 -50 65 -44 -30 3 -58 8 -62
10 -3 2 -30 7 -60 10 -29 3 -56 8 -59 9 -3 2 -45 9 -94 15 -57 7 -98 18 -115
30 -43 30 -407 167 -480 180 -36 6 -72 13 -81 14 -24 5 -46 -11 -34 -23 6 -5
96 -37 200 -70 105 -33 217 -71 250 -85 l60 -25 -185 3 c-102 2 -196 6 -210
10 -26 6 -83 12 -240 21 -52 3 -113 10 -135 15 -22 5 -56 11 -75 14 -19 3 -60
10 -90 16 -208 40 -368 30 -227 -14 55 -17 222 -51 297 -60 25 -3 72 -9 105
-12 71 -7 90 -18 35 -21 -21 -1 -110 -14 -197 -28 -138 -24 -175 -27 -288 -21
-71 3 -141 8 -155 10 -14 3 -47 8 -74 11 -27 3 -59 8 -70 10 -12 3 -32 7 -46
9 -83 13 -110 18 -150 26 -25 6 -56 12 -70 14 -14 2 -30 6 -37 8 -6 1 -12 -1
-13 -7 -2 -13 248 -88 389 -116 61 -12 110 -23 108 -25 -1 -1 -15 -5 -32 -8
-38 -6 -69 -13 -180 -36 -121 -26 -262 -50 -375 -65 -25 -3 -56 -8 -70 -10
-14 -2 -56 -7 -95 -11 -38 -3 -97 -9 -130 -14 -77 -10 -554 -6 -544 5 3 2 77
21 165 41 202 46 358 100 659 229 132 56 285 119 340 138 105 38 319 101 370
110 17 3 48 9 70 12 127 23 239 31 390 29 94 -2 181 -5 195 -7z m559 -346 c33
-1 26 -7 -104 -93 -181 -121 -320 -258 -261 -258 15 0 94 60 159 119 20 19 48
42 60 50 157 107 228 152 253 161 29 11 120 5 234 -15 14 -3 42 -7 62 -11 87
-13 163 -32 133 -34 -101 -5 -228 -42 -415 -120 -377 -156 -654 -249 -826
-276 -22 -3 -41 -7 -44 -9 -3 -2 -33 -7 -65 -10 -33 -4 -62 -9 -65 -10 -4 -2
-51 -7 -105 -12 -183 -15 -609 -8 -745 12 -14 2 -50 6 -80 10 -92 10 -131 16
-235 35 -141 27 -149 28 -252 56 -51 13 -137 35 -190 49 -133 35 -193 55 -193
65 0 5 12 6 28 3 79 -15 484 -2 642 22 14 2 43 6 65 10 70 10 218 35 295 50
41 8 86 17 100 19 14 3 81 16 149 30 68 14 127 26 130 26 3 0 -57 -32 -134
-70 -136 -68 -243 -136 -231 -147 7 -7 106 33 261 107 282 135 354 164 435
175 25 3 52 8 60 10 20 6 59 12 160 25 47 6 99 13 115 15 21 3 10 -6 -40 -31
-188 -95 -300 -163 -435 -265 -82 -61 -106 -86 -96 -96 12 -12 128 50 280 151
245 160 353 212 512 245 73 15 166 18 383 12z m1310 -1045 c52 -4 104 -10 115
-12 11 -2 38 -6 61 -9 168 -24 373 -76 465 -118 33 -15 160 -95 160 -101 0 -3
-9 -3 -21 -1 -19 4 -151 9 -471 20 -117 4 -164 12 -248 43 -50 18 -161 75
-202 103 -28 20 -48 24 -48 11 0 -14 73 -69 141 -106 53 -29 195 -77 218 -74
3 0 24 0 46 -1 101 -4 -60 -32 -260 -46 -44 -3 -96 -10 -115 -15 -69 -18 -97
-21 -240 -25 -143 -5 -147 -4 -260 30 -212 65 -308 57 -112 -8 141 -48 221
-64 312 -61 l75 1 -90 -18 c-49 -10 -106 -20 -125 -23 -19 -4 -69 -12 -110
-20 -71 -13 -87 -12 -280 16 -113 16 -243 39 -290 50 -124 31 -288 33 -410 7
-52 -12 -97 -23 -100 -26 -13 -13 33 -21 124 -22 56 -1 113 -3 126 -5 14 -3
59 -7 100 -10 93 -8 138 -14 283 -42 89 -17 109 -28 60 -32 -16 -1 -53 -6 -83
-12 -30 -5 -79 -12 -109 -15 -30 -4 -62 -8 -72 -10 -10 -2 -49 -7 -86 -10 -37
-4 -79 -8 -93 -10 -54 -8 -164 -18 -355 -31 -94 -7 -585 -8 -619 -1 -66 13 9
48 177 83 314 65 509 121 967 277 461 156 655 204 915 223 38 3 70 6 71 7 6 5
298 0 383 -7z m876 -321 c72 -11 71 -16 -9 -46 -109 -40 -177 -76 -336 -179
-192 -124 -360 -207 -563 -276 -90 -31 -266 -80 -327 -90 -14 -3 -32 -7 -40
-9 -24 -7 -148 -23 -240 -31 -156 -14 -386 -7 -565 16 -44 5 -100 13 -125 16
-143 17 -556 112 -805 184 -77 22 -149 43 -160 45 -11 3 -45 13 -75 24 l-55
19 225 1 c224 2 298 4 440 15 41 3 109 8 150 12 41 3 82 7 90 9 8 2 47 7 85
10 39 4 77 8 85 10 8 3 42 7 75 10 33 4 96 13 140 21 116 20 120 17 25 -22
-299 -123 -459 -157 -619 -130 -75 13 -93 6 -38 -14 118 -44 263 -47 427 -8
53 12 197 56 225 68 11 5 49 21 85 35 36 15 115 52 175 82 61 30 119 56 130
59 148 30 177 35 181 31 6 -6 -161 -138 -231 -183 -33 -20 -109 -62 -170 -91
-115 -56 -102 -62 30 -17 113 39 208 93 333 187 135 101 234 153 312 162 30 4
58 9 61 10 6 5 224 41 294 50 52 6 105 14 143 20 12 2 22 2 22 0 0 -2 -21 -20
-47 -40 -27 -20 -108 -93 -182 -163 -74 -70 -139 -132 -145 -137 -6 -6 -32
-28 -59 -49 -26 -21 -46 -41 -43 -43 8 -8 122 55 177 98 29 23 106 93 169 154
184 179 234 197 520 191 107 -3 213 -8 235 -11z"/>
<path d="M1565 3420 c-16 -4 -65 -15 -109 -25 -113 -25 -223 -83 -285 -151
-78 -85 -95 -130 -95 -249 -1 -86 3 -109 26 -162 87 -204 267 -354 528 -438
71 -23 103 -28 195 -28 214 -1 357 69 372 182 16 115 -118 208 -190 133 -53
-55 -51 -127 4 -165 l23 -16 -30 -26 c-98 -85 -243 -86 -409 -3 -118 58 -188
130 -245 253 -67 142 -84 326 -41 435 94 239 418 259 896 55 132 -57 423 -203
432 -218 7 -11 6 -427 -2 -562 -9 -170 -16 -271 -20 -305 -2 -19 -9 -78 -15
-130 -6 -52 -13 -106 -16 -120 -2 -14 -11 -65 -19 -115 -59 -357 -147 -679
-231 -847 -54 -108 -8 -98 78 17 61 80 108 176 157 320 33 100 92 315 107 390
2 11 13 65 23 120 34 169 50 265 66 395 9 69 18 139 20 155 9 64 15 123 20
200 4 44 8 96 10 115 4 35 17 211 19 262 1 15 4 29 8 33 3 3 32 -11 64 -31
258 -165 474 -255 614 -258 86 -1 122 16 139 66 36 101 -20 217 -185 385 -246
250 -528 370 -696 295 -71 -31 -119 -118 -134 -242 -3 -24 -7 -47 -10 -49 -4
-4 -64 23 -274 122 -218 103 -381 165 -541 203 -39 10 -221 13 -254 4z m1547
-119 c114 -73 378 -435 378 -519 0 -64 -11 -61 -277 68 -136 67 -270 131 -297
142 l-48 21 5 66 c7 80 20 124 50 174 49 80 113 96 189 48z"/>
<path d="M6453 3325 c-82 -35 -192 -180 -292 -388 -46 -95 -175 -415 -214
-529 -13 -36 -89 -13 -155 47 -57 51 -84 111 -81 177 3 73 6 77 50 76 46 0 83
21 109 65 68 110 -57 224 -170 156 -68 -42 -97 -100 -99 -199 l-1 -35 -29 50
c-74 129 -216 219 -341 218 -97 -1 -151 -29 -205 -109 -27 -40 -31 -78 -13
-121 41 -93 149 -119 203 -49 43 56 48 115 14 152 -26 28 -25 31 19 39 120 25
174 -21 380 -325 31 -46 77 -104 102 -128 48 -47 130 -92 168 -92 26 0 27 -8
7 -52 -8 -18 -64 -152 -126 -298 -101 -240 -242 -557 -254 -568 -2 -3 -39 31
-82 75 -94 96 -153 128 -221 120 -122 -14 -161 -174 -107 -440 20 -97 87 -216
144 -254 43 -29 113 -31 158 -4 44 28 104 111 154 215 l43 89 54 -59 c123
-135 165 -176 243 -243 144 -125 261 -193 386 -225 264 -67 485 39 487 235 1
46 -4 62 -27 92 -38 50 -96 68 -142 43 -68 -37 -78 -115 -21 -172 l34 -34 -31
-26 c-73 -61 -182 -84 -282 -58 -106 28 -260 120 -410 245 -94 79 -265 241
-265 252 0 3 28 66 61 139 82 179 175 394 265 618 41 102 79 194 83 205 5 11
14 35 21 53 12 31 15 32 69 33 31 0 70 2 86 4 17 2 50 7 75 10 70 9 200 52
252 82 83 50 175 147 217 231 45 90 65 227 46 331 -18 102 -77 222 -143 289
-62 64 -157 93 -219 67z m218 -145 c35 -48 41 -164 14 -289 -30 -144 -91 -261
-192 -370 -96 -104 -188 -145 -336 -150 -66 -2 -67 -2 -58 21 193 495 330 735
453 797 54 27 95 24 119 -9z m-1375 -1641 c48 -30 194 -190 194 -214 0 -53
-81 -234 -125 -277 -78 -78 -132 -29 -191 169 -43 149 -35 299 20 335 21 14
69 8 102 -13z"/>
<path d="M8745 3313 c-118 -21 -234 -100 -357 -243 -80 -92 -133 -221 -207
-501 -17 -63 -42 -157 -56 -209 -14 -52 -27 -104 -29 -115 -3 -11 -14 -64 -25
-118 -12 -55 -32 -165 -45 -245 -47 -284 -60 -407 -61 -587 l0 -130 59 -3 c32
-2 63 1 68 6 5 5 12 49 15 98 7 119 17 136 99 168 36 15 74 24 84 21 18 -6 34
-53 45 -135 13 -93 16 -107 36 -170 62 -195 146 -279 265 -267 68 7 137 54
152 105 13 42 -2 42 -53 2 -48 -38 -92 -40 -135 -4 -53 45 -94 151 -130 335
-12 61 -28 130 -36 152 -8 22 -14 43 -14 47 0 4 19 20 43 35 67 45 179 166
211 228 23 45 27 66 23 98 -6 46 -44 92 -86 107 -87 30 -273 -54 -389 -177
-29 -31 -51 -49 -48 -41 3 8 7 31 9 50 4 31 17 108 33 205 6 39 43 244 48 271
3 12 7 37 10 56 3 19 21 97 41 173 99 388 202 589 329 646 54 24 123 34 170
25 34 -6 36 -9 29 -34 -23 -83 11 -140 89 -149 40 -5 49 -2 79 25 32 29 34 34
34 96 0 58 -3 68 -30 96 -60 63 -178 99 -270 83z m-227 -1415 c40 -40 -18
-168 -123 -272 -73 -72 -184 -140 -248 -150 -27 -5 -28 -4 -22 27 16 77 91
206 172 294 80 88 186 136 221 101z"/>
<path d="M3545 2165 c-239 -111 -475 -377 -568 -643 -42 -120 -44 -233 -6
-307 16 -29 44 -62 69 -80 38 -27 49 -30 118 -30 93 1 166 22 251 72 116 69
262 223 273 288 6 40 -32 19 -119 -65 -131 -127 -226 -197 -283 -207 -39 -7
-110 -4 -128 6 -43 23 -41 145 4 285 l26 83 48 -5 c112 -10 278 44 380 126 57
45 67 56 112 115 95 125 107 282 28 366 -26 29 -34 32 -82 30 -36 -2 -77 -13
-123 -34z m156 -85 c18 -10 18 -12 1 -58 -50 -130 -190 -280 -324 -345 -49
-24 -148 -51 -156 -42 -2 1 11 27 29 56 108 178 295 369 383 389 44 11 45 11
67 0z"/>
<path d="M4445 2106 c-165 -54 -294 -166 -483 -418 -169 -226 -254 -462 -201
-560 29 -54 116 -59 216 -14 85 39 179 120 275 234 l36 43 1 -79 c1 -92 11
-126 42 -143 47 -25 163 14 220 74 85 89 66 144 -31 94 -47 -24 -49 -25 -65
-7 -23 25 -26 94 -7 149 16 48 29 74 94 182 44 75 59 136 37 150 -8 5 -28 9
-46 9 -29 0 -34 -6 -67 -70 -75 -148 -265 -367 -420 -484 -55 -41 -86 -56
-118 -56 -104 0 246 509 467 680 68 52 119 62 162 31 35 -26 57 -20 74 21 24
59 9 120 -39 154 -30 21 -101 26 -147 10z"/>
<path d="M6946 2108 c-42 -9 -108 -40 -172 -81 -172 -108 -463 -497 -514 -687
-47 -175 -18 -260 90 -260 42 0 136 38 193 77 44 30 155 136 204 195 l31 37 1
-78 c0 -43 5 -90 11 -105 21 -55 112 -58 195 -5 57 36 67 46 94 89 36 60 -3
90 -64 50 -49 -32 -72 -27 -85 21 -18 64 4 137 77 257 66 108 88 177 62 193
-8 5 -29 9 -47 9 -29 0 -34 -5 -56 -52 -101 -227 -516 -628 -566 -548 -32 51
188 381 385 576 140 140 202 169 264 123 25 -18 31 -19 49 -8 33 21 45 106 21
150 -12 24 -76 57 -109 56 -14 0 -42 -4 -64 -9z"/>
<path d="M9365 2113 c-131 -24 -291 -143 -438 -328 -203 -254 -294 -440 -289
-594 4 -116 97 -141 248 -66 61 30 97 58 175 137 55 55 99 103 99 109 0 5 4 9
9 9 5 0 11 -41 13 -91 3 -83 5 -93 28 -111 63 -51 234 27 275 126 23 54 -14
73 -70 36 -110 -73 -124 85 -24 253 95 158 110 200 79 217 -10 6 -33 10 -50
10 -27 0 -33 -5 -50 -45 -78 -181 -415 -538 -530 -561 -22 -5 -35 -3 -40 6
-28 45 173 356 351 544 152 161 235 205 295 157 36 -29 51 -27 70 10 55 106
-27 204 -151 182z"/>
<path d="M7418 2038 c-9 -7 -27 -42 -41 -78 -59 -151 -183 -617 -189 -707 l-3
-48 37 -3 c46 -4 54 7 106 148 53 142 99 231 169 325 92 123 186 198 229 181
15 -6 16 -17 11 -94 -4 -48 -9 -98 -12 -112 -3 -14 -9 -51 -15 -82 -6 -32 -12
-70 -15 -85 -7 -38 -7 -169 0 -217 9 -61 48 -147 77 -169 31 -23 72 -17 88 14
9 16 5 32 -26 86 -50 90 -49 126 19 393 63 249 76 352 52 404 -28 58 -94 72
-173 36 -56 -25 -152 -117 -213 -204 -27 -38 -49 -66 -49 -62 0 4 18 54 41
112 22 57 38 112 35 122 -13 40 -95 66 -128 40z"/>
</g>
</svg>
