<svg width="383" height="139" viewBox="0 0 383 139" fill="none" xmlns="http://www.w3.org/2000/svg">
<path d="M89.48 52.6V61.12H103.22V69.04H89.48V78.28H105.02V86.5H79.22V44.38H105.02V52.6H89.48ZM131.681 86.5L125.261 77.2L119.861 86.5H108.761L119.801 69.4L108.461 53.02H119.981L126.401 62.26L131.801 53.02H142.901L131.681 69.88L143.201 86.5H131.681ZM157.614 57.76C158.614 56.2 159.994 54.94 161.754 53.98C163.514 53.02 165.574 52.54 167.934 52.54C170.694 52.54 173.194 53.24 175.434 54.64C177.674 56.04 179.434 58.04 180.714 60.64C182.034 63.24 182.694 66.26 182.694 69.7C182.694 73.14 182.034 76.18 180.714 78.82C179.434 81.42 177.674 83.44 175.434 84.88C173.194 86.28 170.694 86.98 167.934 86.98C165.614 86.98 163.554 86.5 161.754 85.54C159.994 84.58 158.614 83.34 157.614 81.82V102.46H147.354V53.02H157.614V57.76ZM172.254 69.7C172.254 67.14 171.534 65.14 170.094 63.7C168.694 62.22 166.954 61.48 164.874 61.48C162.834 61.48 161.094 62.22 159.654 63.7C158.254 65.18 157.554 67.2 157.554 69.76C157.554 72.32 158.254 74.34 159.654 75.82C161.094 77.3 162.834 78.04 164.874 78.04C166.914 78.04 168.654 77.3 170.094 75.82C171.534 74.3 172.254 72.26 172.254 69.7ZM203.517 86.98C200.237 86.98 197.277 86.28 194.637 84.88C192.037 83.48 189.977 81.48 188.457 78.88C186.977 76.28 186.237 73.24 186.237 69.76C186.237 66.32 186.997 63.3 188.517 60.7C190.037 58.06 192.117 56.04 194.757 54.64C197.397 53.24 200.357 52.54 203.637 52.54C206.917 52.54 209.877 53.24 212.517 54.64C215.157 56.04 217.237 58.06 218.757 60.7C220.277 63.3 221.037 66.32 221.037 69.76C221.037 73.2 220.257 76.24 218.697 78.88C217.177 81.48 215.077 83.48 212.397 84.88C209.757 86.28 206.797 86.98 203.517 86.98ZM203.517 78.1C205.477 78.1 207.137 77.38 208.497 75.94C209.897 74.5 210.597 72.44 210.597 69.76C210.597 67.08 209.917 65.02 208.557 63.58C207.237 62.14 205.597 61.42 203.637 61.42C201.637 61.42 199.977 62.14 198.657 63.58C197.337 64.98 196.677 67.04 196.677 69.76C196.677 72.44 197.317 74.5 198.597 75.94C199.917 77.38 201.557 78.1 203.517 78.1ZM236.94 58.6C238.14 56.76 239.64 55.32 241.44 54.28C243.24 53.2 245.24 52.66 247.44 52.66V63.52H244.62C242.06 63.52 240.14 64.08 238.86 65.2C237.58 66.28 236.94 68.2 236.94 70.96V86.5H226.68V53.02H236.94V58.6ZM271.204 77.8V86.5H265.984C262.264 86.5 259.364 85.6 257.284 83.8C255.204 81.96 254.164 78.98 254.164 74.86V61.54H250.084V53.02H254.164V44.86H264.424V53.02H271.144V61.54H264.424V74.98C264.424 75.98 264.664 76.7 265.144 77.14C265.624 77.58 266.424 77.8 267.544 77.8H271.204ZM290.739 86.98C287.819 86.98 285.219 86.48 282.939 85.48C280.659 84.48 278.859 83.12 277.539 81.4C276.219 79.64 275.479 77.68 275.319 75.52H285.459C285.579 76.68 286.119 77.62 287.079 78.34C288.039 79.06 289.219 79.42 290.619 79.42C291.899 79.42 292.879 79.18 293.559 78.7C294.279 78.18 294.639 77.52 294.639 76.72C294.639 75.76 294.139 75.06 293.139 74.62C292.139 74.14 290.519 73.62 288.279 73.06C285.879 72.5 283.879 71.92 282.279 71.32C280.679 70.68 279.299 69.7 278.139 68.38C276.979 67.02 276.399 65.2 276.399 62.92C276.399 61 276.919 59.26 277.959 57.7C279.039 56.1 280.599 54.84 282.639 53.92C284.719 53 287.179 52.54 290.019 52.54C294.219 52.54 297.519 53.58 299.919 55.66C302.359 57.74 303.759 60.5 304.119 63.94H294.639C294.479 62.78 293.959 61.86 293.079 61.18C292.239 60.5 291.119 60.16 289.719 60.16C288.519 60.16 287.599 60.4 286.959 60.88C286.319 61.32 285.999 61.94 285.999 62.74C285.999 63.7 286.499 64.42 287.499 64.9C288.539 65.38 290.139 65.86 292.299 66.34C294.779 66.98 296.799 67.62 298.359 68.26C299.919 68.86 301.279 69.86 302.439 71.26C303.639 72.62 304.259 74.46 304.299 76.78C304.299 78.74 303.739 80.5 302.619 82.06C301.539 83.58 299.959 84.78 297.879 85.66C295.839 86.54 293.459 86.98 290.739 86.98Z" fill="#DCE1DE"/>
<rect x="18.5" y="19.5" width="346" height="101" stroke="#DCE1DE" stroke-width="8"/>
<path d="M379 14C379 19.5228 374.523 24 369 24C363.477 24 359 19.5228 359 14C359 8.47715 363.477 4 369 4C374.523 4 379 8.47715 379 14ZM379 125C379 130.523 374.523 135 369 135C363.477 135 359 130.523 359 125C359 119.477 363.477 115 369 115C374.523 115 379 119.477 379 125ZM24 14C24 19.5228 19.5228 24 14 24C8.47715 24 4 19.5228 4 14C4 8.47715 8.47715 4 14 4C19.5228 4 24 8.47715 24 14ZM24 125C24 130.523 19.5228 135 14 135C8.47715 135 4 130.523 4 125C4 119.477 8.47715 115 14 115C19.5228 115 24 119.477 24 125Z" stroke="#DCE1DE" stroke-width="8"/>
</svg>
